<?xml version="1.0" encoding="iso-8859-1"?>
<!-- Generator: Adobe Illustrator 19.0.0, SVG Export Plug-In . SVG Version: 6.00 Build 0)  -->
<svg version="1.1" id="Capa_1" xmlns="http://www.w3.org/2000/svg" xmlns:xlink="http://www.w3.org/1999/xlink" x="0px" y="0px"
	 viewBox="0 0 512 512" style="enable-background:new 0 0 512 512;" xml:space="preserve">
<circle style="fill:#FFE17D;" cx="255.99" cy="256" r="248.49"/>
<path style="fill:#FFD164;" d="M292.063,468.419c-137.238,0-248.49-111.254-248.49-248.49c0-59.431,20.89-113.967,55.693-156.727
	C43.283,108.765,7.501,178.193,7.501,256c0,137.237,111.253,248.49,248.49,248.49c77.807,0,147.236-35.783,192.798-91.765
	C406.03,447.528,351.493,468.419,292.063,468.419z"/>
<path style="fill:#7D5046;" d="M340.157,256L340.157,256c-11.068,0-20.039-8.972-20.039-20.039V219.93
	c0-11.068,8.972-20.039,20.039-20.039l0,0c11.068,0,20.039,8.972,20.039,20.039v16.031C360.197,247.028,351.225,256,340.157,256z"/>
<path style="fill:#9C6846;" d="M360.197,219.929c0-12.379-11.222-22.134-24.047-19.65v15.642c0,13.281,10.767,24.047,24.047,24.047
	l0,0V219.929z"/>
<path style="fill:#7D5046;" d="M171.826,256L171.826,256c-11.068,0-20.039-8.972-20.039-20.039V219.93
	c0-11.068,8.972-20.039,20.039-20.039l0,0c11.068,0,20.039,8.972,20.039,20.039v16.031C191.865,247.028,182.893,256,171.826,256z"/>
<path style="fill:#9C6846;" d="M191.865,219.929c0-12.379-11.222-22.134-24.047-19.65v15.642c0,13.281,10.767,24.047,24.047,24.047
	l0,0V219.929z"/>
<path style="fill:#C9C6CA;" d="M478.136,396.041l-34.009,34.009l-26.847-26.847c-9.391-9.391-9.391-24.617,0-34.009l0,0
	c9.391-9.391,24.617-9.391,34.009,0L478.136,396.041z"/>
<path d="M171.816,207.354c4.142,0,7.5-3.358,7.5-7.5c0-4.142-3.358-7.5-7.5-7.5c-15.186,0-27.541,12.355-27.541,27.541v16.033
	c0,15.186,12.355,27.541,27.541,27.541s27.541-12.355,27.541-27.541v-12.026c0-4.142-3.358-7.5-7.5-7.5c-4.142,0-7.5,3.358-7.5,7.5
	v12.026c0,6.916-5.626,12.542-12.541,12.542c-6.916,0-12.542-5.626-12.542-12.542v-16.033
	C159.273,212.98,164.9,207.354,171.816,207.354z"/>
<path d="M340.167,207.354c4.142,0,7.5-3.358,7.5-7.5c0-4.142-3.358-7.5-7.5-7.5c-15.186,0-27.542,12.355-27.542,27.541v16.033
	c0,15.186,12.355,27.541,27.542,27.541c15.186,0,27.541-12.355,27.541-27.541v-12.026c0-4.142-3.358-7.5-7.5-7.5s-7.5,3.358-7.5,7.5
	v12.026c0,6.916-5.626,12.542-12.542,12.542c-6.916,0-12.543-5.626-12.543-12.542v-16.033
	C327.624,212.98,333.251,207.354,340.167,207.354z"/>
<path d="M15.108,248.712c1.833-61.602,26.856-119.538,70.456-163.14c43.601-43.601,101.539-68.623,163.14-70.456
	c61.334-1.832,120.397,19.429,166.322,59.85c3.109,2.737,7.848,2.436,10.585-0.675c2.737-3.109,2.435-7.848-0.675-10.585
	C376.148,20.765,313.403-1.808,248.259,0.123C182.82,2.071,121.275,28.651,74.959,74.967
	C28.643,121.282,2.063,182.828,0.115,248.266c-1.939,65.144,20.641,127.89,63.583,176.677c1.482,1.685,3.552,2.545,5.633,2.545
	c1.76,0,3.527-0.616,4.952-1.87c3.109-2.737,3.412-7.476,0.675-10.585C34.537,369.111,13.283,310.043,15.108,248.712z"/>
<path d="M477.407,384.639c26.37-45.277,38.024-96.843,33.72-149.532c-4.516-55.278-26.246-106.474-62.842-148.052
	c-2.736-3.109-7.476-3.412-10.585-0.675s-3.412,7.476-0.675,10.585c34.447,39.136,54.901,87.328,59.152,139.364
	c3.944,48.275-6.332,95.545-29.759,137.322l-9.776-9.776c-5.959-5.959-13.881-9.241-22.309-9.241
	c-5.867,0-11.488,1.594-16.372,4.572l-7.641-7.641c-4.445-4.445-10.355-6.893-16.64-6.893h-33.96v-8.534c0-4.142-3.358-7.5-7.5-7.5
	s-7.5,3.358-7.5,7.5v8.534h-33.102v-8.534c0-4.142-3.358-7.5-7.5-7.5c-4.142,0-7.5,3.358-7.5,7.5v8.534h-33.1v-8.534
	c0-4.142-3.358-7.5-7.5-7.5c-4.142,0-7.5,3.358-7.5,7.5v8.534h-33.102v-8.534c0-4.142-3.358-7.5-7.5-7.5s-7.5,3.358-7.5,7.5v8.534
	h-33.101v-8.534c0-4.142-3.358-7.5-7.5-7.5c-4.142,0-7.5,3.358-7.5,7.5v8.534h-40.601c-4.142,0-7.5,3.358-7.5,7.5
	c0,4.142,3.358,7.5,7.5,7.5h16.55v8.534c0,4.142,3.358,7.5,7.5,7.5s7.5-3.358,7.5-7.5v-8.534h33.101v8.534
	c0,4.142,3.358,7.5,7.5,7.5c4.142,0,7.5-3.358,7.5-7.5v-8.534h33.102v8.534c0,4.142,3.358,7.5,7.5,7.5c4.142,0,7.5-3.358,7.5-7.5
	v-8.534h33.102v8.534c0,4.142,3.358,7.5,7.5,7.5c4.142,0,7.5-3.358,7.5-7.5v-8.534h33.101v8.534c0,4.142,3.358,7.5,7.5,7.5
	s7.5-3.358,7.5-7.5v-8.534h33.102v8.534c0,4.142,3.358,7.5,7.5,7.5c4.142,0,7.5-3.358,7.5-7.5v-8.534h9.91
	c2.279,0,4.423,0.888,6.035,2.5l7.641,7.641c-2.977,4.886-4.572,10.506-4.572,16.372c0,8.428,3.282,16.35,9.241,22.309
	l16.148,16.148c-0.585,0.597-1.167,1.198-1.755,1.785c-43.601,43.601-101.538,68.623-163.14,70.456
	c-61.331,1.83-120.397-19.429-166.322-59.849c-3.108-2.736-7.848-2.435-10.585,0.675c-2.737,3.109-2.435,7.848,0.675,10.585
	c46.852,41.237,106.576,63.697,168.935,63.697c2.576,0,5.158-0.039,7.742-0.116c65.438-1.948,126.984-28.528,173.299-74.843
	c0.587-0.587,1.17-1.189,1.755-1.785l12.927,12.926c4.588,4.588,10.615,6.882,16.64,6.882c6.026,0,12.053-2.294,16.64-6.882
	l11.338-11.338c9.176-9.176,9.176-24.105,0-33.281L477.407,384.639z M422.631,374.481c3.227-3.227,7.465-4.84,11.704-4.84
	s8.477,1.613,11.704,4.84l21.547,21.547l-23.406,23.406l-21.547-21.547C416.177,391.434,416.177,380.934,422.631,374.481z
	 M485.717,426.231l-11.338,11.338c-3.327,3.327-8.742,3.327-12.069,0l-7.528-7.528l23.406-23.406l7.528,7.528
	C489.045,417.49,489.045,422.903,485.717,426.231z"/>
<g>
</g>
<g>
</g>
<g>
</g>
<g>
</g>
<g>
</g>
<g>
</g>
<g>
</g>
<g>
</g>
<g>
</g>
<g>
</g>
<g>
</g>
<g>
</g>
<g>
</g>
<g>
</g>
<g>
</g>
</svg>
